# xmcd
#
# Track frame offsets:
#	150
#	9789
#	20803
#	33747
#	46534
#	56547
#	68864
#	83084
#	94194
#	104568
#	117143
#	129566
#	140965
#	152764
#	164405
#	175714
#	185255
#	196820
#	209310
#	220319
#	231054
#	243154
#	255055
#	268058
#	278786
#	292698
#	304754
#	315682
#	329300
#
# Disc length: 4554 seconds
#
# Revision: 0
# Processed by: cddbd v1.5.2PL0 Copyright (c) Steve Scherf et al.
# Submitted via: EasyCDDAExtractor 16.0.6.1
#
DISCID=9111c81d
DTITLE=Roy Orbison - The Soul Of Rock 'n' Roll Disc 2
DYEAR=2000
DGENRE=Country
TTITLE0=Uptown
TTITLE1=Only the Lonely
TTITLE2=Blue Angel
TTITLE3=In Dreams
TTITLE4=Running Scared
TTITLE5=I'm Hurtin'
TTITLE6=(I'd Be) A Legend in My Time
TTITLE7=Love Hurts
TTITLE8=Lana
TTITLE9=Crying
TTITLE10=Candy Man
TTITLE11=Night Life
TTITLE12=(They Call You) Gigolette
TTITLE13=Let the Good Times Roll
TTITLE14=Blue Bayou
TTITLE15=Wedding Day
TTITLE16=Dream Baby
TTITLE17=Evergreen
TTITLE18=Working for the Man
TTITLE19=The Crowd
TTITLE20=Leah
TTITLE21=The Actress
TTITLE22=Borne on the Wind
TTITLE23=Falling
TTITLE24=Indian Wedding
TTITLE25=Shahdaroba
TTITLE26=All I Have to Do Is Dream
TTITLE27=Mama
TTITLE28=Pretty Paper
EXTD=
EXTT0=
EXTT1=
EXTT2=
EXTT3=
EXTT4=
EXTT5=
EXTT6=
EXTT7=
EXTT8=
EXTT9=
EXTT10=
EXTT11=
EXTT12=
EXTT13=
EXTT14=
EXTT15=
EXTT16=
EXTT17=
EXTT18=
EXTT19=
EXTT20=
EXTT21=
EXTT22=
EXTT23=
EXTT24=
EXTT25=
EXTT26=
EXTT27=
EXTT28=
PLAYORDER=
